<svg width="12" height="8" viewBox="0 0 12 8" fill="none" xmlns="http://www.w3.org/2000/svg">
<path d="M11.8385 0.325353C11.7501 0.287043 11.646 0.300408 11.5723 0.358918C9.74841 1.79689 7.32324 3.18994 6.59085 3.80371C6.17978 4.1488 5.80453 4.14926 5.39251 3.80371C4.61186 3.14957 1.89992 1.5325 0.411038 0.358896C0.336915 0.300386 0.232575 0.287479 0.144807 0.325331C0.0565699 0.363445 0 0.445529 0 0.535992V6.37498C0 6.8872 0.447855 7.30371 0.998621 7.30371H10.9848C11.5355 7.30371 11.9834 6.8872 11.9834 6.37498V0.535992C11.9834 0.445529 11.9268 0.363228 11.8385 0.325353Z" fill="#2C2C2C"/>
</svg>
