<svg width="21" height="20" viewBox="0 0 21 20" fill="none" xmlns="http://www.w3.org/2000/svg">
<path d="M20.3347 10C20.3347 4.478 15.866 0 10.3555 0C4.84497 0 0.376282 4.478 0.376282 10C0.376282 15.522 4.84497 20 10.3555 20C10.4141 20 10.4724 19.9988 10.5309 19.9977V12.2131H8.38693V9.70932H10.5309V7.86682C10.5309 5.72998 11.8327 4.56696 13.7348 4.56696C14.6457 4.56696 15.4287 4.63501 15.6569 4.66537V6.89865H14.3453C13.3104 6.89865 13.1101 7.39151 13.1101 8.11462V9.70932H15.5845L15.2619 12.2131H13.1101V19.6136C17.2812 18.4154 20.3347 14.5645 20.3347 10Z" fill="#2D415E"/>
</svg>
