<svg width="21" height="20" viewBox="0 0 21 20" fill="none" xmlns="http://www.w3.org/2000/svg">
<path fill-rule="evenodd" clip-rule="evenodd" d="M0.814941 10C0.814941 4.478 5.28363 0 10.7941 0C16.3047 0 20.7734 4.478 20.7734 10C20.7734 15.522 16.3047 20 10.7941 20C5.28363 20 0.814941 15.522 0.814941 10ZM16.2235 13.7613C16.3651 13.396 16.4621 12.9787 16.4898 12.3674C16.5178 11.7551 16.5244 11.5594 16.5244 10C16.5244 8.44055 16.5178 8.24493 16.49 7.6326C16.4621 7.02133 16.3653 6.604 16.2235 6.23871C16.0798 5.85556 15.8541 5.50858 15.5627 5.22171C15.2764 4.9295 14.93 4.70337 14.5476 4.55917C14.1831 4.41742 13.7666 4.32037 13.1566 4.2926C12.5456 4.26453 12.3504 4.25781 10.7941 4.25781C9.23794 4.25781 9.04273 4.26453 8.43167 4.29245C7.82167 4.32037 7.40521 4.41742 7.04068 4.55933C6.65833 4.70352 6.31191 4.9295 6.02579 5.22171C5.7342 5.50842 5.50853 5.85556 5.36463 6.23871C5.22302 6.604 5.12618 7.02133 5.09847 7.6326C5.07045 8.24493 5.0639 8.44055 5.0639 10C5.0639 11.5594 5.07045 11.7551 5.09862 12.3676C5.12633 12.9787 5.22333 13.3961 5.36494 13.7613C5.50883 14.1444 5.73435 14.4916 6.02579 14.7783C6.31206 15.0705 6.65833 15.2965 7.04083 15.4407C7.40521 15.5826 7.82183 15.6796 8.43167 15.7076C9.04288 15.7355 9.23794 15.7422 10.7943 15.7422C12.3505 15.7422 12.5457 15.7355 13.1568 15.7076C13.7666 15.6796 14.1832 15.5826 14.5476 15.4407C15.3173 15.1424 15.9258 14.5326 16.2235 13.7613Z" fill="#2D415E"/>
</svg>
